<?xml version="1.0" encoding="UTF-8"?>
<svg version="1.1" xmlns="http://www.w3.org/2000/svg" width="495" height="495">
<path d="M0 0 C0.90558407 -0.00453111 1.81116814 -0.00906223 2.74419415 -0.01373065 C5.79119413 -0.02643269 8.83801669 -0.02475054 11.88504028 -0.02310181 C14.06453686 -0.02908343 16.24403131 -0.03588812 18.42352295 -0.04345703 C24.35325526 -0.06116138 30.28292988 -0.06581427 36.21268606 -0.0670886 C41.15817475 -0.06898499 46.10364992 -0.07633951 51.04913342 -0.08343279 C63.38207969 -0.10066389 75.71499286 -0.10445789 88.04794933 -0.10293217 C98.0933093 -0.10216979 108.13854499 -0.11776432 118.18386841 -0.14419556 C129.84631414 -0.17477668 141.50866804 -0.19171357 153.17115605 -0.19026911 C159.34565273 -0.18975846 165.51999034 -0.19549883 171.69445419 -0.21662521 C177.50077807 -0.23594875 183.30679016 -0.23617232 189.11312485 -0.22159195 C191.24605767 -0.21949544 193.37900971 -0.22425454 195.51190948 -0.23631287 C198.42025597 -0.25169214 201.32751762 -0.24250553 204.23583984 -0.22705078 C205.50660978 -0.24248147 205.50660978 -0.24248147 206.80305183 -0.25822389 C210.81835167 -0.21096232 212.77334722 -0.0320984 216.24547005 2.17333031 C219.95722378 6.06081429 219.39057608 9.71470432 219.38534546 14.82633972 C219.38831658 15.72290226 219.3912877 16.6194648 219.39434886 17.5431959 C219.40306237 20.56562094 219.40454634 23.58800649 219.40603638 26.61044312 C219.41066268 28.77008652 219.41568708 30.9297291 219.42108154 33.08937073 C219.43422568 38.96956546 219.44065442 44.84974877 219.4450922 50.72995591 C219.44801968 54.40081516 219.45212386 58.07167125 219.45659637 61.74252892 C219.4702766 73.21948604 219.47994069 84.69643599 219.48379827 96.1734007 C219.48828049 109.43726452 219.50583386 122.70102537 219.53479886 135.96485788 C219.55639131 146.20693195 219.56650124 156.448977 219.56783938 166.6910736 C219.56888916 172.81302352 219.57483357 178.93487672 219.592659 185.05680275 C219.60909755 190.81463888 219.61131568 196.57230514 219.60251999 202.33015633 C219.60174735 204.44535018 219.60612202 206.560553 219.61597824 208.67572403 C219.62863116 211.55987365 219.62285714 214.44341555 219.61239624 217.32756042 C219.62448085 218.58768069 219.62448085 218.58768069 219.63680959 219.87325794 C219.5975478 224.49105887 219.25565614 227.5300423 216.24490356 231.26742554 C212.33214905 233.87592855 209.02982921 233.55445479 204.48980713 233.5415802 C203.58422306 233.54681688 202.67863899 233.55205356 201.74561298 233.55744892 C198.69862011 233.57250019 195.6517944 233.5731552 192.60476685 233.57382202 C190.42526972 233.58144003 188.24577529 233.5898669 186.06628418 233.5990448 C180.136558 233.62103135 174.20688341 233.62979423 168.27712107 233.63487124 C164.57492742 233.63850974 160.8727474 233.64474713 157.17055893 233.65187263 C143.59431823 233.67764852 130.01812114 233.68980096 116.4418578 233.69350976 C106.39647123 233.69683188 96.35126209 233.71945175 86.30593872 233.75448608 C74.64348875 233.79502403 62.98117479 233.81842027 51.31865108 233.81920868 C45.144112 233.82000307 38.96983211 233.82881637 32.79535294 233.85720634 C26.98898142 233.8833059 21.18308548 233.88563739 15.37668228 233.8695507 C13.24374356 233.86772978 11.11077799 233.87448454 8.97789764 233.89036942 C6.06935242 233.91071313 3.1624895 233.90034698 0.25396729 233.88215637 C-1.01680265 233.90195632 -1.01680265 233.90195632 -2.3132447 233.92215627 C-6.65160584 233.86003805 -8.2543381 233.67019632 -11.75566292 230.85400486 C-15.13579363 226.48127822 -14.90104427 223.10244223 -14.89553833 217.74647522 C-14.89850945 216.85399623 -14.90148057 215.96151724 -14.90454173 215.04199344 C-14.91325512 212.0333879 -14.9147392 209.02482202 -14.91622925 206.01620483 C-14.92085556 203.86641352 -14.92587996 201.71662302 -14.93127441 199.5668335 C-14.94441847 193.71349741 -14.95084728 187.8601728 -14.95528507 182.00682425 C-14.95821257 178.35271598 -14.96231675 174.69861086 -14.96678925 171.04450417 C-14.98046945 159.61987277 -14.99013355 148.19524858 -14.99399114 136.77060956 C-14.99847334 123.56730607 -15.01602664 110.36410604 -15.04499173 97.16083401 C-15.06658435 86.96546868 -15.07669412 76.77013249 -15.07803226 66.57474452 C-15.07908202 60.48074009 -15.0850262 54.38683283 -15.10285187 48.2928524 C-15.1192907 42.56128086 -15.12150842 36.82987997 -15.11271286 31.0982933 C-15.11194024 28.99277478 -15.1163147 26.88724723 -15.12617111 24.78175163 C-15.1388245 21.91073828 -15.13304976 19.04033538 -15.12258911 16.16932678 C-15.13467372 14.91504294 -15.13467372 14.91504294 -15.14700246 13.63542002 C-15.10763663 9.02619118 -14.75774427 5.99902817 -11.75509644 2.26742554 C-7.84147713 -0.341654 -4.54065554 -0.01651321 0 0 Z " fill="#FE5400" transform="translate(144.75509643554688,130.73257446289063)"/>
<path d="M0 0 C1.06138184 0.01087646 2.12276367 0.02175293 3.21630859 0.03295898 C22.31834958 0.42228685 37.96452963 7.91397837 51.30078125 21.609375 C63.10760898 35.27319893 69.15584506 52.4681659 68.46484375 70.46875 C66.94987141 87.88222514 56.65700106 103.90699864 46.125 117.375 C45.33996094 118.38433594 44.55492187 119.39367187 43.74609375 120.43359375 C37.86398121 127.65966315 31.41929086 134.30996357 24.875 140.9375 C24.02309082 141.80713379 23.17118164 142.67676758 22.29345703 143.57275391 C17.83442627 148.02655208 13.79897125 151.60416171 8.125 154.375 C7.465 154.705 6.805 155.035 6.125 155.375 C-0.46266472 156.10963903 -5.56119784 155.56890407 -10.875 151.375 C-14.35001111 148.51581364 -17.62114668 145.48256291 -20.875 142.375 C-21.41608398 141.86114746 -21.95716797 141.34729492 -22.51464844 140.81787109 C-30.63869074 133.05892849 -37.96878855 124.99880871 -44.67285156 115.98291016 C-45.79063829 114.48783636 -46.93720641 113.01439992 -48.0859375 111.54296875 C-61.48043695 94.01721563 -67.15518113 75.21781819 -64.875 53.375 C-62.07744508 37.39439924 -52.40415354 22.90039112 -39.625 13.1875 C-27.22194152 4.57569453 -15.12490942 -0.21036871 0 0 Z " fill="#010000" transform="translate(245.875,161.625)"/>
<path d="M0 0 C7.24180666 5.12608685 12.76027207 12.81180594 14.58984375 21.59375 C15.65355506 30.95108547 13.1713526 39.27541834 7.77734375 46.96875 C3.05735505 52.75339781 -3.00877118 57.04434572 -10.41015625 58.59375 C-21.2600603 59.65670356 -29.94850041 58.31651838 -38.66015625 51.59375 C-44.97482966 45.52293592 -48.59045056 38.30446202 -49.01904297 29.54833984 C-49.09531203 19.70500803 -46.93690656 11.43110386 -40.11328125 4.125 C-28.87628178 -5.97799035 -13.15105101 -7.67322263 0 0 Z " fill="#FAFAFA" transform="translate(264.41015625,203.40625)"/>
<path d="M0 0 C2 2 2 2 2.0625 3.9375 C0.69566575 6.59076649 -0.96149512 7.28008811 -3.6706543 8.3737793 C-8.6572099 9.71436363 -13.80962536 9.46924261 -18.9375 9.4375 C-20.64969727 9.4674707 -20.64969727 9.4674707 -22.39648438 9.49804688 C-29.40996977 9.49399518 -34.01469401 8.70868653 -40 5 C-39.671875 3.10546875 -39.671875 3.10546875 -39 1 C-28.3925867 -5.50909452 -11.25751245 -4.78389418 0 0 Z " fill="#080200" transform="translate(266,331)"/>
<path d="M0 0 C9.11313269 1.06893604 19.2796671 7.46649441 25.00830078 14.44726562 C35 28.90830734 35 28.90830734 35 34 C26.85553875 33.03615843 17.03017847 27.37804093 11.51220703 21.38378906 C8.88446417 17.83482 6.95056594 13.94637696 5 10 C4.01963473 8.42510629 3.02253411 6.86034697 2 5.3125 C0 2 0 2 0 0 Z " fill="#0E0B0A" transform="translate(230,213)"/>
<path d="M0 0 C0.66 0 1.32 0 2 0 C2 1.65 2 3.3 2 5 C2.66 5 3.32 5 4 5 C6.40432027 11.59990703 6.33211097 17.96776171 6.3125 24.9375 C6.32861328 26.07896484 6.34472656 27.22042969 6.36132812 28.39648438 C6.3661718 36.78088286 5.29220398 43.09404941 0.4375 50.125 C-1.06714686 52.42648646 -2.05985759 54.17957277 -2.9375 56.8125 C-6.34912755 67.04738265 -12.66143194 74.31197632 -20 82 C-21.27925755 83.47188706 -22.55111027 84.95027193 -23.8125 86.4375 C-26.32701055 89.33885832 -28.99941249 91.59953 -32 94 C-33.16416447 95.29626824 -34.30831694 96.61064813 -35.4375 97.9375 C-38.37789137 101.36584425 -41.41886302 104.22279173 -45 107 C-46.01320313 107.79277344 -46.01320313 107.79277344 -47.046875 108.6015625 C-52.49755473 112.79898376 -55.84631187 114.16084117 -62.875 114.25 C-64.08929688 114.27578125 -65.30359375 114.3015625 -66.5546875 114.328125 C-70.20672783 113.98031164 -72.05885669 113.12478034 -75 111 C-74.505 110.01 -74.505 110.01 -74 109 C-73.21625 109.495 -72.4325 109.99 -71.625 110.5 C-67.01663046 112.40691153 -62.92924176 112.76643698 -58 112 C-51.52079485 109.243423 -47.0107763 104.81280075 -42 100 C-41.39269043 99.41992188 -40.78538086 98.83984375 -40.15966797 98.2421875 C-22.64939698 81.41986637 -7.50909206 63.02810229 1 40 C1.39832031 38.96746094 1.39832031 38.96746094 1.8046875 37.9140625 C5.04601896 27.7460501 3.37588177 15.60915634 0.65625 5.57421875 C0 3 0 3 0 0 Z " fill="#CA4300" transform="translate(310,204)"/>
<path d="M0 0 C1 3 1 3 0.3203125 4.76171875 C-2.75369783 9.71429096 -6.28713796 13.23760899 -10.73046875 16.98828125 C-12.92582524 18.93425129 -14.79454276 20.95036872 -16.6875 23.1875 C-19.53517042 26.5380847 -22.51261386 29.29549646 -26 32 C-26.67546875 32.52851563 -27.3509375 33.05703125 -28.046875 33.6015625 C-33.49755473 37.79898376 -36.84631187 39.16084117 -43.875 39.25 C-45.08929688 39.27578125 -46.30359375 39.3015625 -47.5546875 39.328125 C-51.20672783 38.98031164 -53.05885669 38.12478034 -56 36 C-55.67 35.34 -55.34 34.68 -55 34 C-54.21625 34.495 -53.4325 34.99 -52.625 35.5 C-48.01663046 37.40691153 -43.92924176 37.76643698 -39 37 C-24.28013436 30.73743506 -8.93241908 12.96641479 0 0 Z " fill="#BD3F00" transform="translate(291,279)"/>
<path d="M0 0 C0 3 0 3 -1.64453125 4.68359375 C-2.35996094 5.26238281 -3.07539063 5.84117187 -3.8125 6.4375 C-6.07227299 8.27742445 -7.90439336 9.87016664 -9.63671875 12.22265625 C-10.08660156 12.80917969 -10.53648437 13.39570313 -11 14 C-11.66 14 -12.32 14 -13 14 C-13.36544922 14.85078125 -13.36544922 14.85078125 -13.73828125 15.71875 C-17.34352265 22.23720504 -24.08134921 28.30289885 -31 31 C-35.02520836 31.29910238 -38.97314472 31.23804071 -43 31 C-43.33 30.34 -43.66 29.68 -44 29 C-43.26394531 28.96261719 -42.52789062 28.92523438 -41.76953125 28.88671875 C-40.79371094 28.82097656 -39.81789062 28.75523437 -38.8125 28.6875 C-37.84957031 28.62949219 -36.88664063 28.57148438 -35.89453125 28.51171875 C-32.61330727 27.93163732 -30.74370901 26.86414679 -28 25 C-27.175 24.46761719 -26.35 23.93523437 -25.5 23.38671875 C-20.47796743 19.97330598 -16.66874337 16.821777 -13 12 C-8.92481359 7.70453324 -4.48243432 3.85956504 0 0 Z " fill="#EA4E00" transform="translate(287,289)"/>
<path d="M0 0 C0.66 0 1.32 0 2 0 C2 1.65 2 3.3 2 5 C2.66 5 3.32 5 4 5 C6.40432027 11.59990703 6.33211097 17.96776171 6.3125 24.9375 C6.32861328 26.07896484 6.34472656 27.22042969 6.36132812 28.39648438 C6.36513313 34.98295468 5.88911795 40.04602701 3 46 C2.34 46.66 1.68 47.32 1 48 C1.144375 47.030625 1.28875 46.06125 1.4375 45.0625 C3.3433544 31.61309726 4.25944449 18.86933917 0.65625 5.57421875 C0 3 0 3 0 0 Z " fill="#E74D00" transform="translate(310,204)"/>
<path d="M0 0 C4.23431576 3.60700972 6.4692099 8.14586161 9 13 C4.02790438 11.23570801 -0.43438061 8.6060834 -5 6 C-3.63016497 2.83884224 -3.0109362 2.0072908 0 0 Z " fill="#EB4E00" transform="translate(250,228)"/>
<path d="M0 0 C0.33 0 0.66 0 1 0 C1.5569956 10.21158599 -1.60502203 18.01963751 -8 26 C-8.66 26.33 -9.32 26.66 -10 27 C-8.8498076 24.03493115 -7.61774908 21.12010913 -6.30859375 18.22265625 C-6.00373047 17.54396484 -5.69886719 16.86527344 -5.38476562 16.16601562 C-4.75405554 14.76544911 -4.11864357 13.36699034 -3.47851562 11.97070312 C-1.69512946 7.97606957 -0.50194018 4.39369553 0 0 Z " fill="#B93D00" transform="translate(312,238)"/>
<path d="M0 0 C5.03163018 4.29785078 10.02718443 8.63425542 15 13 C13.359375 13.79296875 13.359375 13.79296875 11 14 C8.85280214 12.50355903 7.1251165 11.09656753 5.25 9.3125 C4.74339844 8.86455078 4.23679688 8.41660156 3.71484375 7.95507812 C2.265625 6.61328125 2.265625 6.61328125 0 4 C0 2.68 0 1.36 0 0 Z " fill="#D44600" transform="translate(220,299)"/>
<path d="M0 0 C1.61622915 2.85332305 2.24954632 4.8866689 2.23046875 8.16015625 C2.22942139 8.9490625 2.22837402 9.73796875 2.22729492 10.55078125 C2.2141626 11.37964844 2.20103027 12.20851562 2.1875 13.0625 C2.17887939 13.91070312 2.17025879 14.75890625 2.16137695 15.6328125 C1.91526279 32.94339283 1.91526279 32.94339283 -0.54296875 35.78125 C-1.02378906 36.1834375 -1.50460937 36.585625 -2 37 C-1.7834375 35.63294922 -1.7834375 35.63294922 -1.5625 34.23828125 C0.07830746 22.78681252 0.21909258 11.55460571 0 0 Z " fill="#D84800" transform="translate(313,215)"/>
<path d="M0 0 C0.66 0.33 1.32 0.66 2 1 C1.2575 1.5775 0.515 2.155 -0.25 2.75 C-2.97724768 4.83880089 -2.97724768 4.83880089 -4.78125 7.125 C-7.726391 9.61385155 -9.4532353 9.41507673 -13.25 9.25 C-14.32765625 9.21390625 -15.4053125 9.1778125 -16.515625 9.140625 C-17.74539062 9.07101562 -17.74539062 9.07101562 -19 9 C-19.33 8.34 -19.66 7.68 -20 7 C-18.89591797 6.94392578 -18.89591797 6.94392578 -17.76953125 6.88671875 C-10.3884491 6.46229912 -10.3884491 6.46229912 -4 3 C-3.236875 2.443125 -2.47375 1.88625 -1.6875 1.3125 C-1.130625 0.879375 -0.57375 0.44625 0 0 Z " fill="#DB4900" transform="translate(263,311)"/>
<path d="M0 0 C4.33333333 4.33333333 8.66666667 8.66666667 13 13 C11.68 13.33 10.36 13.66 9 14 C9 13.34 9 12.68 9 12 C8.34 12 7.68 12 7 12 C5.78125 10.50390625 5.78125 10.50390625 4.5 8.5625 C2.7134637 5.77468153 2.7134637 5.77468153 0 4 C0 2.68 0 1.36 0 0 Z " fill="#CF4500" transform="translate(207,285)"/>
<path d="M0 0 C0.33 0.99 0.66 1.98 1 3 C-1.65381366 7.3522544 -4.10842202 8.7771055 -9 10 C-8.06409496 8.8944811 -7.12620142 7.79064547 -6.1875 6.6875 C-5.66542969 6.07261719 -5.14335937 5.45773437 -4.60546875 4.82421875 C-3.12827531 3.14575321 -1.59960869 1.56117966 0 0 Z " fill="#AC3900" transform="translate(279,293)"/>
<path d="M0 0 C3.01693943 2.85674795 5.40554531 5.82348931 7.75 9.25 C8.67039063 10.58804687 8.67039063 10.58804687 9.609375 11.953125 C10.06828125 12.62859375 10.5271875 13.3040625 11 14 C10.01 14.495 10.01 14.495 9 15 C9 14.34 9 13.68 9 13 C8.01 12.67 7.02 12.34 6 12 C4.39453125 10.0390625 4.39453125 10.0390625 2.8125 7.625 C2.28269531 6.83351563 1.75289062 6.04203125 1.20703125 5.2265625 C0 3 0 3 0 0 Z " fill="#CA4300" transform="translate(192,265)"/>
<path d="M0 0 C1.65 0 3.3 0 5 0 C5 1.65 5 3.3 5 5 C3.35 5 1.7 5 0 5 C0 3.35 0 1.7 0 0 Z " fill="#454545" transform="translate(270,228)"/>
<path d="M0 0 C1.32 0 2.64 0 4 0 C4 1.65 4 3.3 4 5 C2.68 5 1.36 5 0 5 C0 3.35 0 1.7 0 0 Z " fill="#191919" transform="translate(245,253)"/>
<path d="M0 0 C1.32 0 2.64 0 4 0 C4 1.65 4 3.3 4 5 C2.68 5 1.36 5 0 5 C0 3.35 0 1.7 0 0 Z " fill="#131313" transform="translate(245,203)"/>
<path d="M0 0 C1 3 1 3 0.00390625 5.04296875 C-0.47175781 5.75066406 -0.94742187 6.45835937 -1.4375 7.1875 C-1.91058594 7.90292969 -2.38367188 8.61835938 -2.87109375 9.35546875 C-3.24363281 9.89816406 -3.61617188 10.44085938 -4 11 C-4.65234375 9.234375 -4.65234375 9.234375 -5 7 C-4.00390625 5.078125 -4.00390625 5.078125 -2.5625 3.25 C-2.08941406 2.63640625 -1.61632812 2.0228125 -1.12890625 1.390625 C-0.75636719 0.93171875 -0.38382812 0.4728125 0 0 Z " fill="#DB4900" transform="translate(306,260)"/>
<path d="M0 0 C1.65 0 3.3 0 5 0 C5 1.32 5 2.64 5 4 C3.35 3.67 1.7 3.34 0 3 C0 2.01 0 1.02 0 0 Z " fill="#2A2A2A" transform="translate(219,229)"/>
</svg>
